<svg width="1200" height="900" viewBox="0 0 1200 900" fill="none" xmlns="http://www.w3.org/2000/svg">
  <rect width="1200" height="900" rx="48" fill="#F3F6F8"/>
  <rect x="70" y="90" width="1060" height="720" rx="36" fill="white" stroke="#D7E0E7" stroke-width="8"/>
  <path d="M140 660C260 560 350 520 455 520C530 520 617 565 691 604C761 640 820 670 884 670C955 670 1018 631 1060 590V752H140V660Z" fill="#D5ECE8"/>
  <path d="M194 370L388 214L566 341V420H484V316L390 246L276 332V420H194V370Z" fill="#12202F"/>
  <path d="M644 432L830 275L1010 432V516H928V376L832 302L726 381V516H644V432Z" fill="#0F766E"/>
  <rect x="278" y="355" width="86" height="120" rx="14" fill="#F3F6F8"/>
  <rect x="734" y="404" width="84" height="64" rx="12" fill="#F3F6F8"/>
  <rect x="848" y="404" width="84" height="64" rx="12" fill="#F3F6F8"/>
  <circle cx="948" cy="250" r="52" fill="#FDE68A"/>
  <text x="140" y="170" fill="#12202F" font-family="Avenir Next, Segoe UI, sans-serif" font-size="52" font-weight="700">
    No photo available
  </text>
  <text x="140" y="230" fill="#5C6B77" font-family="Avenir Next, Segoe UI, sans-serif" font-size="28">
    Upload property photos to improve clicks and contact rate
  </text>
</svg>
